<svg width="100" height="100" fill="none" xmlns="http://www.w3.org/2000/svg"><circle opacity=".6" cx="50" cy="50" r="49" fill="#DEDEFF" fill-opacity=".4" stroke="#3035C4" stroke-width="2"/><g clip-path="url(#a)"><path d="M69.663 64.847a4.48 4.48 0 0 0 .853-2.631v-5.868a.977.977 0 0 0-.977-.977h-4.364a3.663 3.663 0 0 0-3.66 3.66v3.185c0 .981.317 1.89.853 2.63a6.287 6.287 0 0 0-1.91.635 8.309 8.309 0 0 0-6.134-3.656l-.03-.008a5.741 5.741 0 0 0 1.471-3.841V50a.977.977 0 0 0-.976-.977h-5.932a4.628 4.628 0 0 0-4.622 4.623v4.33c0 1.474.557 2.82 1.47 3.841l-.03.008a8.309 8.309 0 0 0-6.134 3.656 6.297 6.297 0 0 0-1.909-.635c.535-.74.852-1.649.852-2.63v-5.868a.977.977 0 0 0-.976-.977h-4.365a3.663 3.663 0 0 0-3.659 3.66v3.185c0 .982.317 1.89.853 2.631C27.315 65.341 25 67.97 25 71.13v2.893c0 .54.437.977.977.977h48.046c.54 0 .977-.437.977-.977V71.13c0-3.16-2.315-5.789-5.337-6.283ZM31.438 59.03c0-.94.765-1.706 1.705-1.706h3.388v1.19c0 .583-.474 1.057-1.057 1.057h-4.036v-.54Zm0 2.494h4.036a2.99 2.99 0 0 0 1.057-.192v.884a2.55 2.55 0 0 1-2.547 2.547 2.55 2.55 0 0 1-2.547-2.547v-.692Zm3.176 5.192-.63.63-.63-.63h1.26Zm3.526 3.375v2.956H26.953V71.13a4.421 4.421 0 0 1 3.699-4.355l2.642 2.642a.977.977 0 0 0 1.38 0l2.644-2.643a4.34 4.34 0 0 1 1.334.447 8.263 8.263 0 0 0-.512 2.87ZM50 61.788a3.817 3.817 0 0 1-3.812-3.812v-1.291h5.836c.647 0 1.257-.166 1.788-.456v1.747A3.817 3.817 0 0 1 50 61.788Zm1.702 1.953L50 65.443l-1.702-1.702h3.404Zm-5.514-10.095a2.672 2.672 0 0 1 2.669-2.67h4.955v1.968a1.79 1.79 0 0 1-1.788 1.788h-5.836v-1.086Zm13.719 19.4H40.093v-1.952h6.359a.977.977 0 0 0 0-1.953h-6.288a6.364 6.364 0 0 1 5.43-5.342l3.715 3.716a.973.973 0 0 0 1.382 0l3.715-3.716c3.101.417 5.5 3.079 5.5 6.292v2.956Zm3.562-14.016c0-.94.765-1.706 1.706-1.706h3.388v1.19c0 .583-.475 1.057-1.058 1.057h-4.036v-.54Zm0 2.494h4.036a3 3 0 0 0 1.058-.192v.884a2.55 2.55 0 0 1-2.547 2.547 2.55 2.55 0 0 1-2.547-2.547v-.692Zm3.176 5.192-.63.63-.629-.63h1.26Zm-4.785 6.33v-2.955a8.264 8.264 0 0 0-.512-2.87 4.34 4.34 0 0 1 1.334-.447l2.643 2.643a.977.977 0 0 0 1.381 0l2.642-2.642a4.421 4.421 0 0 1 3.699 4.355v1.917H61.86Z" fill="#3035C4"/><path d="M54.813 31.38a.977.977 0 0 0-1.381 0l-4.792 4.793-2.072-2.072a.977.977 0 1 0-1.38 1.381l2.761 2.762a.977.977 0 0 0 1.381 0l5.483-5.482a.977.977 0 0 0 0-1.381Z" fill="#E6514A"/><path d="M53.993 25.847a.977.977 0 0 0-.796 1.784 7.873 7.873 0 0 1 4.662 7.182c0 4.333-3.525 7.859-7.859 7.859s-7.86-3.526-7.86-7.86a7.878 7.878 0 0 1 4.629-7.166.977.977 0 0 0-.804-1.78 9.835 9.835 0 0 0-5.777 8.947c0 5.41 4.401 9.812 9.812 9.812 5.41 0 9.812-4.402 9.812-9.812a9.828 9.828 0 0 0-5.819-8.966Z" fill="#E6514A"/><path d="M50.035 25H50a.977.977 0 0 0 0 1.953h.031A.976.976 0 0 0 50.035 25Zm.655 44.427a.983.983 0 0 0-.69-.286.984.984 0 0 0-.69.286.984.984 0 0 0-.287.69.98.98 0 0 0 .287.69.984.984 0 0 0 .69.287.983.983 0 0 0 .69-.286.984.984 0 0 0 .287-.69.983.983 0 0 0-.287-.691Z" fill="#3035C4"/></g><defs><clipPath id="a"><path fill="#fff" transform="translate(25 25)" d="M0 0h50v50H0z"/></clipPath></defs></svg>