<svg width="100" height="100" fill="none" xmlns="http://www.w3.org/2000/svg"><circle opacity=".6" cx="50" cy="50" r="49" fill="#DEDEFF" fill-opacity=".4" stroke="#3035C4" stroke-width="2"/><g clip-path="url(#a)"><path d="M57.03 29.966H41.815a.732.732 0 1 0 0 1.465H57.03a.732.732 0 1 0 0-1.465Z" fill="#E6514A"/><path fill-rule="evenodd" clip-rule="evenodd" d="M40.833 30.699c0-.543.44-.983.982-.983H57.03a.982.982 0 1 1 0 1.965H41.815a.982.982 0 0 1-.982-.982Zm.982-.483a.482.482 0 1 0 0 .965H57.03a.482.482 0 1 0 0-.965H41.815Z" fill="#E6514A"/><path d="M57.03 34.253H41.815a.732.732 0 1 0 0 1.465H57.03a.732.732 0 1 0 0-1.465Z" fill="#E6514A"/><path fill-rule="evenodd" clip-rule="evenodd" d="M40.833 34.986c0-.543.44-.983.982-.983H57.03a.982.982 0 1 1 0 1.965H41.815a.982.982 0 0 1-.982-.982Zm.982-.483a.482.482 0 1 0 0 .965H57.03a.482.482 0 1 0 0-.965H41.815Z" fill="#E6514A"/><path d="M71.047 50.33H66.7v-2.044a4.893 4.893 0 0 0-4.887-4.888h-8.234a4.893 4.893 0 0 0-4.888 4.888v2.044h-4.348a3.952 3.952 0 0 0-3.953 3.953v16.75a3.957 3.957 0 0 0 3.953 3.953h26.706A3.957 3.957 0 0 0 75 71.033V67.86a.732.732 0 1 0-1.465 0v3.173a2.49 2.49 0 0 1-2.487 2.488H44.341a2.49 2.49 0 0 1-2.488-2.488v-10.38a6.56 6.56 0 0 0 4.843 2.432v1.118a2.68 2.68 0 0 0 2.677 2.677 2.68 2.68 0 0 0 2.676-2.677V63.09H63.34v1.113a2.68 2.68 0 0 0 2.677 2.677 2.68 2.68 0 0 0 2.676-2.677v-1.118a6.56 6.56 0 0 0 4.843-2.432v3.782a.732.732 0 1 0 1.465 0V54.283a3.952 3.952 0 0 0-3.953-3.953Zm-20.892-2.044a3.426 3.426 0 0 1 3.422-3.423h8.235a3.426 3.426 0 0 1 3.422 3.423v2.044H63.71v-2.044a1.9 1.9 0 0 0-1.897-1.897h-8.234a1.9 1.9 0 0 0-1.898 1.897v2.044h-1.525v-2.044Zm2.99 2.044v-2.044c0-.239.194-.433.432-.433h8.235c.238 0 .432.194.432.433v2.044h-9.099Zm-2.56 13.873a1.213 1.213 0 0 1-2.423 0v-2.618c0-.668.544-1.212 1.212-1.212.668 0 1.212.544 1.212 1.212v2.618Zm16.642 0a1.213 1.213 0 0 1-2.423 0v-2.618c0-.668.543-1.212 1.212-1.212.668 0 1.211.544 1.211 1.212v2.618Zm1.465-2.584v-.034a2.68 2.68 0 0 0-2.676-2.677 2.68 2.68 0 0 0-2.677 2.677v.04H52.05v-.04a2.68 2.68 0 0 0-2.677-2.677 2.68 2.68 0 0 0-2.677 2.677v.034a5.109 5.109 0 0 1-4.843-5.096v-2.24a2.488 2.488 0 0 1 2.488-2.488h26.706c1.37 0 2.487 1.11 2.487 2.488v2.24a5.11 5.11 0 0 1-4.843 5.096Z" fill="#3035C4"/><path d="M39.445 73.52H28.622a2.16 2.16 0 0 1-2.157-2.156V36.183c0-.158.017-.314.05-.465h6.665a2.527 2.527 0 0 0 2.524-2.524V26.53c.151-.033.306-.05.465-.05h24.833a2.16 2.16 0 0 1 2.157 2.157v12.567a.732.732 0 1 0 1.464 0V28.636a3.626 3.626 0 0 0-3.622-3.622H36.17c-.968 0-1.878.377-2.562 1.06l-7.546 7.548A3.598 3.598 0 0 0 25 36.182v35.182a3.626 3.626 0 0 0 3.622 3.622h10.823a.732.732 0 1 0 0-1.465Zm-5.206-46.005v5.68a1.06 1.06 0 0 1-1.059 1.058H27.5l6.74-6.738Z" fill="#3035C4"/><path fill-rule="evenodd" clip-rule="evenodd" d="M33.43 25.898a3.848 3.848 0 0 1 2.739-1.134h24.833a3.876 3.876 0 0 1 3.871 3.872v12.567a.982.982 0 1 1-1.964 0V28.636a1.91 1.91 0 0 0-1.907-1.907H36.169a1.93 1.93 0 0 0-.215.012v6.453a2.777 2.777 0 0 1-2.774 2.774h-6.453c-.008.07-.012.142-.012.215v35.18a1.91 1.91 0 0 0 1.907 1.908h10.823a.982.982 0 1 1 0 1.965H28.622a3.876 3.876 0 0 1-3.872-3.872V36.183c0-1.034.403-2.007 1.134-2.738l7.547-7.547Zm2.739-.634c-.902 0-1.748.35-2.385.988l-7.546 7.546a3.348 3.348 0 0 0-.988 2.385v35.18a3.376 3.376 0 0 0 3.372 3.373h10.823a.482.482 0 1 0 0-.965H28.622a2.41 2.41 0 0 1-2.407-2.407V36.183c0-.176.019-.35.055-.518l.044-.197h6.866a2.277 2.277 0 0 0 2.274-2.274v-6.866l.197-.043a2.43 2.43 0 0 1 .518-.056h24.833a2.41 2.41 0 0 1 2.407 2.407v12.567a.482.482 0 1 0 .964 0V28.636a3.376 3.376 0 0 0-3.372-3.372H36.17Zm-1.68 1.647v6.283a1.31 1.31 0 0 1-1.309 1.31h-6.283l7.592-7.593Zm-6.385 7.092h5.076a.81.81 0 0 0 .81-.809v-5.076l-5.886 5.885Z" fill="#3035C4"/></g><defs><clipPath id="a"><path fill="#fff" transform="translate(25 25)" d="M0 0h50v50H0z"/></clipPath></defs></svg>