<svg width="127" height="34" fill="none" xmlns="http://www.w3.org/2000/svg"><path d="m2.433 5.147-.675.707v2.09a.51.51 0 0 1-.154.382.54.54 0 0 1-.6.12.524.524 0 0 1-.172-.12.511.511 0 0 1-.152-.381V1.353A.604.604 0 0 1 .832.97a.6.6 0 0 1 .383-.152A.61.61 0 0 1 1.6.97a.605.605 0 0 1 .154.393v2.946l3.03-3.229a.513.513 0 0 1 .35-.206.5.5 0 0 1 .405.11.515.515 0 0 1 .208.348.498.498 0 0 1-.11.403l-2.45 2.629 2.481 3.243A.497.497 0 0 1 5.804 8a.558.558 0 0 1-.213.369.542.542 0 0 1-.568.07.519.519 0 0 1-.185-.147L2.433 5.147Zm6.713.382L6.926 8.25a.54.54 0 0 1-.42.207.528.528 0 0 1-.328-.12.516.516 0 0 1-.212-.348.492.492 0 0 1 .11-.403l2.382-2.94L6.101 1.73a.5.5 0 0 1-.11-.404.476.476 0 0 1 .203-.355.486.486 0 0 1 .393-.11.571.571 0 0 1 .36.208l2.199 2.7 2.153-2.704a.564.564 0 0 1 .57-.196.49.49 0 0 1 .185.098.481.481 0 0 1 .207.359.496.496 0 0 1-.11.404L9.834 4.646l-.688.883ZM15.727.846a2.116 2.116 0 0 1 1.509.662 2.128 2.128 0 0 1 .032 2.973c-.394.414-.927.67-1.498.719-.006.006-.63.01-1.87.01V7.9a.496.496 0 0 1-.163.381.527.527 0 0 1-.763.004.557.557 0 0 1-.166-.378V1.391A.536.536 0 0 1 12.97 1a.52.52 0 0 1 .384-.154h2.372Zm-.088 3.277a1.085 1.085 0 0 0 .798-.328c.208-.208.328-.488.335-.781a1.136 1.136 0 0 0-.339-.774 1.08 1.08 0 0 0-.798-.304H13.9v2.187h1.739Zm9.413-.62a.542.542 0 0 1-.406.045.46.46 0 0 1-.309-.241c-.546-.907-1.33-1.36-2.35-1.36a2.768 2.768 0 0 0-1.931.802 2.745 2.745 0 0 0-.813 1.92 2.546 2.546 0 0 0 .81 1.904 2.69 2.69 0 0 0 1.935.773 2.66 2.66 0 0 0 1.282-.322 2.8 2.8 0 0 0 .995-.915.442.442 0 0 1 .342-.244.407.407 0 0 1 .383.11.495.495 0 0 1 .27.315.413.413 0 0 1-.077.404c-.343.54-.816.986-1.377 1.297a3.66 3.66 0 0 1-1.826.468 3.753 3.753 0 0 1-2.711-1.111 3.602 3.602 0 0 1-1.146-2.68 3.662 3.662 0 0 1 1.148-2.721 3.853 3.853 0 0 1 4.614-.61 3.465 3.465 0 0 1 1.364 1.382.582.582 0 0 1 .077.468.491.491 0 0 1-.274.316Zm1.564 4.944a.52.52 0 0 1-.388-.153.537.537 0 0 1-.163-.392v-6.51a.474.474 0 0 1 .163-.381.504.504 0 0 1 .384-.165.528.528 0 0 1 .382.164.476.476 0 0 1 .164.381v2.69c1.24 0 1.863.004 1.87.011a2.35 2.35 0 0 1 1.497.719c.385.393.597.921.59 1.47a2.19 2.19 0 0 1-.629 1.51 2.208 2.208 0 0 1-1.502.657l-2.368-.001Zm.54-3.278v2.188h1.739a1.085 1.085 0 0 0 .798-.304c.209-.205.33-.482.34-.773a1.147 1.147 0 0 0-.34-.785 1.08 1.08 0 0 0-.798-.326h-1.739Zm4.297-3.82a.537.537 0 0 1 .54-.539c.147.004.288.06.395.16a.6.6 0 0 1 .153.382v6.572a.517.517 0 0 1-.153.38.526.526 0 0 1-.382.164.562.562 0 0 1-.54-.538l-.013-6.582ZM41.2.825a.597.597 0 0 1 .382.153.6.6 0 0 1 .154.396.592.592 0 0 1-.154.38.595.595 0 0 1-.382.152h-1.662v6.017a.511.511 0 0 1-.154.381.522.522 0 0 1-.382.164.561.561 0 0 1-.54-.538V1.902h-1.658a.52.52 0 0 1-.382-.152.521.521 0 0 1-.122-.589.539.539 0 0 1 .504-.332L41.2.825Zm3.902 4.704-2.22 2.721a.54.54 0 0 1-.425.207.522.522 0 0 1-.328-.12.512.512 0 0 1-.208-.348.502.502 0 0 1 .11-.403l2.382-2.94-2.36-2.917a.501.501 0 0 1-.11-.404.538.538 0 0 1 .961-.26l2.198 2.699 2.155-2.7a.564.564 0 0 1 .36-.207.542.542 0 0 1 .602.468.499.499 0 0 1-.11.404l-2.318 2.917-.689.883ZM51.684.846a2.117 2.117 0 0 1 1.509.662 2.066 2.066 0 0 1 .622 1.503 2.055 2.055 0 0 1-.59 1.47 2.349 2.349 0 0 1-1.497.719c-.008.006-.631.01-1.87.01V7.9a.497.497 0 0 1-.164.381.525.525 0 0 1-.383.165.564.564 0 0 1-.54-.539V1.391A.537.537 0 0 1 48.936 1a.518.518 0 0 1 .382-.154h2.366Zm-.087 3.277a1.085 1.085 0 0 0 .797-.328c.21-.208.332-.489.34-.784a1.13 1.13 0 0 0-.34-.774 1.08 1.08 0 0 0-.797-.304H49.86v2.19h1.738Zm6.916 3.234a.597.597 0 0 1 .383.154.539.539 0 0 1 .163.391.496.496 0 0 1-.163.38.527.527 0 0 1-.383.165h-3.812a.565.565 0 0 1-.54-.538V1.39a.537.537 0 0 1 .165-.39.516.516 0 0 1 .382-.154h3.805a.597.597 0 0 1 .383.154.539.539 0 0 1 .163.391.496.496 0 0 1-.16.386.527.527 0 0 1-.386.159h-3.269v2.187h2.493a.597.597 0 0 1 .382.154.539.539 0 0 1 .124.6.5.5 0 0 1-.124.172.525.525 0 0 1-.382.164h-2.489v2.144h3.265Zm6.771 1.101h-5.015a.504.504 0 0 1-.382-.165.523.523 0 0 1-.163-.38V1.402a.476.476 0 0 1 .163-.38.503.503 0 0 1 .383-.165.528.528 0 0 1 .383.164.477.477 0 0 1 .157.38v5.967h3.377V1.402a.477.477 0 0 1 .163-.38.504.504 0 0 1 .384-.165.53.53 0 0 1 .382.164.478.478 0 0 1 .164.38v5.967h.558a.608.608 0 0 1 .393.153.59.59 0 0 1 .154.381v1.785a.513.513 0 0 1-.154.38.56.56 0 0 1-.607.123.54.54 0 0 1-.18-.122.498.498 0 0 1-.164-.38l.004-1.23Zm3.411-3.311-.676.707v2.09a.512.512 0 0 1-.154.382.542.542 0 0 1-.93-.381V1.353a.605.605 0 0 1 .153-.383.6.6 0 0 1 .383-.152.616.616 0 0 1 .393.152.605.605 0 0 1 .154.393v2.946l3.027-3.229a.516.516 0 0 1 .35-.206.502.502 0 0 1 .405.11.518.518 0 0 1 .208.348.497.497 0 0 1-.11.403l-2.443 2.629 2.482 3.243a.497.497 0 0 1 .135.393.558.558 0 0 1-.218.369.542.542 0 0 1-.57.07.518.518 0 0 1-.184-.147l-2.405-3.145Zm7.424 3.3a3.61 3.61 0 0 1-2.679-1.133 3.74 3.74 0 0 1-1.105-2.7 3.676 3.676 0 0 1 1.105-2.657 3.772 3.772 0 0 1 2.678-1.11 3.785 3.785 0 0 1 2.678 1.11 3.689 3.689 0 0 1 1.105 2.657 3.729 3.729 0 0 1-1.105 2.7 3.593 3.593 0 0 1-2.677 1.133Zm0-6.545a2.736 2.736 0 0 0-1.925.795 2.71 2.71 0 0 0-.798 1.917 2.668 2.668 0 0 0 .798 1.971 2.703 2.703 0 0 0 1.924.802 2.711 2.711 0 0 0 1.925-.802 2.753 2.753 0 0 0 .81-1.97 2.61 2.61 0 0 0-.81-1.918 2.623 2.623 0 0 0-1.924-.795Zm5.476.045v5.966a.536.536 0 0 1-.163.391.597.597 0 0 1-.383.154.52.52 0 0 1-.382-.154.539.539 0 0 1-.163-.391V1.402a.476.476 0 0 1 .163-.38.504.504 0 0 1 .384-.165h3.804a.526.526 0 0 1 .382.164.479.479 0 0 1 .158.38.535.535 0 0 1-.165.394.6.6 0 0 1-.375.152h-3.26Zm7.861 6.5a3.609 3.609 0 0 1-2.679-1.133 3.74 3.74 0 0 1-1.104-2.7 3.675 3.675 0 0 1 1.104-2.656A3.775 3.775 0 0 1 89.456.846a3.787 3.787 0 0 1 2.678 1.112 3.69 3.69 0 0 1 1.105 2.656 3.727 3.727 0 0 1-1.105 2.7 3.596 3.596 0 0 1-2.678 1.133Zm0-6.545a2.731 2.731 0 0 0-1.924.796 2.709 2.709 0 0 0-.798 1.916 2.668 2.668 0 0 0 .798 1.971 2.702 2.702 0 0 0 1.924.802 2.711 2.711 0 0 0 1.925-.802 2.754 2.754 0 0 0 .81-1.97 2.612 2.612 0 0 0-.81-1.918 2.623 2.623 0 0 0-1.925-.795ZM101.68.87a.543.543 0 0 1 .393.162.517.517 0 0 1 .163.38v6.512a.496.496 0 0 1-.163.38.556.556 0 0 1-.89-.172.496.496 0 0 1-.04-.208v-2.69h-1.116l-1.814 2.959a.539.539 0 0 1-.47.269.48.48 0 0 1-.283-.077.54.54 0 0 1-.253-.348.49.49 0 0 1 .066-.404l1.53-2.483a2.488 2.488 0 0 1-1.17-.828 2.061 2.061 0 0 1-.448-1.295 2.122 2.122 0 0 1 .676-1.535 2.087 2.087 0 0 1 1.498-.62l2.321-.003Zm-.541 3.276V1.957h-1.738a1.085 1.085 0 0 0-.799.306 1.13 1.13 0 0 0-.339.772c.008.295.13.576.34.784a1.08 1.08 0 0 0 .798.327h1.738Zm2.898 2.264c.02.146.071.286.148.411.076.125.178.234.299.318.255.19.568.285.886.27.322.01.635-.104.875-.317a.983.983 0 0 0 .349-.762 1.093 1.093 0 0 0-.349-.794 1.188 1.188 0 0 0-.875-.348.682.682 0 0 1-.448-.154.485.485 0 0 1-.164-.38.534.534 0 0 1 .164-.392.682.682 0 0 1 .448-.153 1.191 1.191 0 0 0 1.134-.706c.06-.138.09-.288.09-.44a.997.997 0 0 0-.349-.762 1.26 1.26 0 0 0-.875-.316 1.594 1.594 0 0 0-.863.262 1.016 1.016 0 0 0-.47.599.675.675 0 0 1-.241.36.47.47 0 0 1-.437.087c-.371-.067-.557-.27-.558-.611a2.039 2.039 0 0 1 .929-1.274 2.87 2.87 0 0 1 1.644-.472 2.639 2.639 0 0 1 1.728.61 1.917 1.917 0 0 1 .743 1.525 2.001 2.001 0 0 1-.874 1.687 2.012 2.012 0 0 1 .874 1.676c0 .575-.248 1.075-.743 1.502a2.559 2.559 0 0 1-1.728.643 2.83 2.83 0 0 1-1.717-.538 2.158 2.158 0 0 1-.852-1.361c0-.341.186-.548.558-.62a.8.8 0 0 1 .459.14.419.419 0 0 1 .215.31Zm4.998 2.037a.514.514 0 0 1-.382-.153.528.528 0 0 1-.164-.392v-6.51a.483.483 0 0 1 .164-.381.498.498 0 0 1 .382-.165.529.529 0 0 1 .384.164.49.49 0 0 1 .163.381v2.69c1.239 0 1.862.004 1.87.011a2.35 2.35 0 0 1 1.5.717c.385.393.597.922.591 1.47a2.195 2.195 0 0 1-.63 1.51 2.21 2.21 0 0 1-1.502.658h-2.376Zm.54-3.278v2.188h1.739a1.08 1.08 0 0 0 .798-.304c.209-.205.33-.482.338-.773a1.143 1.143 0 0 0-.338-.785 1.08 1.08 0 0 0-.798-.326h-1.739Zm4.297-3.82a.538.538 0 0 1 .541-.539.605.605 0 0 1 .383.152c.095.106.149.24.153.382v6.58a.519.519 0 0 1-.153.38.524.524 0 0 1-.76.001.558.558 0 0 1-.164-.375V1.348Zm3.572 3.798-.676.708v2.09a.518.518 0 0 1-.152.38.538.538 0 0 1-.393.165.529.529 0 0 1-.384-.164.516.516 0 0 1-.153-.381V1.353a.613.613 0 0 1 .153-.392.604.604 0 0 1 .384-.152.616.616 0 0 1 .39.161c.096.109.15.248.153.393v2.946l3.028-3.229a.527.527 0 0 1 .35-.205.5.5 0 0 1 .405.108.512.512 0 0 1 .208.349.507.507 0 0 1-.109.404l-2.449 2.624 2.483 3.243a.503.503 0 0 1 .135.393.571.571 0 0 1-.208.37.543.543 0 0 1-.755-.077l-2.41-3.142Zm7.719 1.797h-2.668l-.46 1.11c-.051.261-.225.393-.524.393h-.121a.602.602 0 0 1-.338-.316c-.073-.08-.092-.214-.055-.404l2.339-6.488a.512.512 0 0 1 .541-.393.492.492 0 0 1 .513.393l2.219 6.488a.542.542 0 0 1 0 .404.611.611 0 0 1-.328.316.667.667 0 0 1-.405-.055.712.712 0 0 1-.318-.338l-.395-1.11Zm-.323-1.1-.962-2.787-.985 2.787h1.947Z" fill="#fff"/><path d="M10.588 12.484c.81-1.822 3.562-1.749 4.332.07 2.413 5.097 4.24 10.458 6.544 15.604 1.439.287 3.943.372 3.765 2.456.27 1.518-1.23 2.825-2.702 2.595-6.484.038-12.976.108-19.464.008-1.891.21-3.22-1.775-2.62-3.48.69-1.416 2.402-1.222 3.686-1.572 2.281-5.17 4.048-10.568 6.46-15.681Zm-1.11 15.92c2.202-.009 4.403-.009 6.604 0a1621.756 1621.756 0 0 0-3.22-8.428c-1.301 2.733-2.336 5.585-3.384 8.427Zm17.291-15.235c.046-1.238 1.094-2.19 2.256-2.142a2.212 2.212 0 0 1 1.417.631c.38.375.61.873.65 1.405l-.036 12.241a601.57 601.57 0 0 0 10.842-12.97 2.71 2.71 0 0 1 .897-.782c.717-.386 1.75-.51 2.398-.065.778.538.83 1.697.845 2.22.075 2.393.09 8.987-.024 17.856-.384 1.19-1.533 1.938-2.702 1.808a2.571 2.571 0 0 1-1.364-.614 2.553 2.553 0 0 1-.788-1.269l-.144-10.647-6.007 6.397a216.23 216.23 0 0 1-4.215 4.65c-.262.282-.991 1.034-1.982 1.21-.23.042-.972.174-1.518-.24a1.53 1.53 0 0 1-.16-.128c-.43-.404-.46-.989-.473-1.227-.04-.712-.01-8.148.108-18.334Zm26.971.484c.7-1.804 2.52-3.477 4.592-2.78 2.297 1.014 2.837 3.687 3.726 5.784 1.595 4.687 3.782 9.188 5.033 13.99.505 1.892-1.756 3.2-3.377 2.51-1.494-.952-1.68-2.85-2.311-4.353-2.715-.008-5.422 0-8.13-.022-.505 1.247-.886 2.572-1.62 3.71-1.035 1.278-3.353 1.123-4.1-.38-.242-2.17.793-4.183 1.5-6.166 1.626-4.08 2.976-8.256 4.687-12.293Zm.832 10.59c1.813 0 3.628-.003 5.445-.008-.946-2.71-1.78-5.454-2.62-8.197-1.02 2.706-1.899 5.455-2.825 8.205Zm20.053-9.607c.355-1.049 1.232-3.64 2.814-3.843.28-.031.562.002.826.097 1.792.578 2.518 3.058 2.648 3.523l6.456 16.222a2.39 2.39 0 0 1-.266 1.608 2.418 2.418 0 0 1-4.153.088l-5.025-12.376L73.602 31.5c-.344 1.12-1.215 1.926-2.235 2.046-.194.023-1.39.134-2.041-.774-.59-.828-.242-1.813-.207-1.91 2.434-7.309 4.389-12.956 5.506-16.225Zm20.485-3.019c3.975-1.435 8.938-.977 12.058 2.067 3.695 3.65 3.959 9.686 2.07 14.26-3.243 7.491-15.535 7.677-19.2.473-2.862-5.677-1.471-14.352 5.072-16.8Zm1.603 4.554c-3.19 2.317-3.478 7.13-1.728 10.413 1.65 3.184 6.738 3.44 8.729.488 1.844-2.743 1.844-6.578.155-9.398-1.401-2.378-4.9-2.96-7.156-1.503Zm17.074-4.478 11.334-.134c1.136.333 1.898 1.345 1.879 2.383-.023 1.285-1.216 2.44-2.724 2.39l-7.486.013-.093 15.067a2.415 2.415 0 0 1-.794 1.531 2.435 2.435 0 0 1-4.037-1.517l-.124-15.5c-.035-.19-.421-2.528 1.06-3.719.291-.235.626-.41.985-.514Z" fill="#E6514A"/></svg>