<svg xmlns="http://www.w3.org/2000/svg" xmlns:xlink="http://www.w3.org/1999/xlink">
	   <symbol viewBox="0 0 16 16" id="icon-close" xmlns="http://www.w3.org/2000/svg">
      <path d="M15.481 13.14A971.42 971.42 0 0 0 10.367 8l5.14-5.14c1.527-1.527-.84-3.894-2.367-2.367L8 5.633C6.295 3.93 4.59 2.223 2.86.52 1.333-1.007-1.034 1.36.493 2.886A976.98 976.98 0 0 1 5.633 8C3.93 9.705 2.223 11.41.52 13.14c-1.527 1.527.84 3.893 2.366 2.367 1.705-1.73 3.41-3.435 5.115-5.14l5.14 5.14c1.502 1.501 3.868-.865 2.341-2.367Z" />
   </symbol>
   <symbol viewBox="0 0 9 14" id="icon-arrow" xmlns="http://www.w3.org/2000/svg">
      <path d="M5.496 7.027c-.096-.111-.144-.173-.191-.223C3.86 5.307 2.427 3.81.982 2.324c-.239-.247-.49-.483-.716-.742C-.164 1.099-.044.38.505.096c.334-.173.728-.111 1.014.174.263.26.514.52.765.78 1.6 1.658 3.212 3.316 4.812 4.975.298.309.597.63.907.977-.036.05-.095.124-.155.186-2.078 2.153-4.167 4.307-6.245 6.473-.358.371-.764.396-1.05.272-.574-.248-.741-1.002-.311-1.485.274-.31.561-.582.836-.879 1.397-1.46 2.794-2.896 4.179-4.344.071-.062.143-.111.239-.198Z" />
   </symbol>
   <symbol viewBox="0 0 16 16" id="icon-check" xmlns="http://www.w3.org/2000/svg">
      <path d="M8 0a8 8 0 1 0 0 16A8 8 0 0 0 8 0Zm4.49 5.49c-.883.885-1.477 1.4-3.134 3.397-.956 1.153-1.86 2.391-1.867 2.4l-.396.495a.235.235 0 0 1-.348.029L3.562 8.853A.801.801 0 0 1 4.65 7.68l1.907 1.773c.1.092.257.082.344-.024.294-.365.698-.809 1.134-1.247 1.64-1.653 2.648-2.54 3.186-2.933.654-.476 1.405-.884 1.587-.658.282.353.11.469-.32.9Z" />
   </symbol>
   <symbol viewBox="0 0 16 16" id="icon-facebook" xmlns="http://www.w3.org/2000/svg">
      <path d="M4.47 8.47h1.562v6.498c0 .128.103.232.23.232h2.65c.126 0 .23-.104.23-.232V8.5h1.795a.23.23 0 0 0 .229-.206l.272-2.392a.234.234 0 0 0-.056-.181.23.23 0 0 0-.172-.078H9.141v-1.5c0-.452.241-.68.716-.68h1.353c.127 0 .23-.105.23-.233V1.034a.231.231 0 0 0-.23-.232H9.346C9.333.802 9.304.8 9.26.8c-.324 0-1.448.064-2.336.89-.984.914-.848 2.01-.815 2.2v1.753H4.47a.231.231 0 0 0-.23.232v2.362c0 .128.103.232.23.232Z" />
      <path d="M8.829 15.2h-2.57a.51.51 0 0 1-.51-.51V8.738H4.52a.51.51 0 0 1-.51-.51V5.96a.51.51 0 0 1 .51-.51h1.305V4.077c-.044-.278-.142-1.405.882-2.347C7.645.867 8.827.8 9.167.8c.042 0 .072 0 .09.002h1.802a.51.51 0 0 1 .51.51V3.42a.51.51 0 0 1-.51.51H9.746c-.342 0-.407.129-.407.367V5.45h1.72a.51.51 0 0 1 .506.568L11.3 8.315a.51.51 0 0 1-.506.452H9.338v5.923a.51.51 0 0 1-.51.51Zm-2.506-.574h2.442V8.48c0-.158.128-.287.287-.287h1.685l.25-2.17H9.052a.287.287 0 0 1-.287-.286v-1.44c0-.589.367-.94.981-.94h1.249V1.374H9.236l-.069-.001c-.287 0-1.286.056-2.071.778-.84.773-.732 1.678-.702 1.852a.288.288 0 0 1 .004.05v1.683a.287.287 0 0 1-.287.287H4.584v2.14h1.452c.158 0 .287.128.287.287v6.175Z" />
      <path d="M6.9 11.184a.287.287 0 0 1-.287-.287v-.143a.287.287 0 0 1 .574 0v.143a.287.287 0 0 1-.287.287Zm0 3.098a.287.287 0 0 1-.287-.287v-2.18a.287.287 0 1 1 .574 0v2.18a.287.287 0 0 1-.287.287Z" />
   </symbol>
   <symbol viewBox="0 0 16 16" id="icon-instagram" xmlns="http://www.w3.org/2000/svg">
      <g clip-path="url(#da)">
         <path d="M10.913 14.93H5.087c-2.205 0-4-1.794-4-3.999V5.069c0-2.205 1.795-4 4-4h5.826c2.205 0 4 1.795 4 4v5.862c0 2.205-1.795 4-4 4ZM5.087 2.713A2.359 2.359 0 0 0 2.731 5.07v5.862a2.359 2.359 0 0 0 2.356 2.356h5.826a2.359 2.359 0 0 0 2.356-2.356V5.069c0-1.3-1.057-2.356-2.356-2.356H5.087Z" />
         <path d="M8 11.43A3.433 3.433 0 0 1 4.57 8c0-1.89 1.54-3.43 3.43-3.43 1.89 0 3.43 1.54 3.43 3.43 0 1.89-1.54 3.43-3.43 3.43Zm0-5.256c-1.007 0-1.826.82-1.826 1.826 0 1.007.82 1.826 1.826 1.826 1.007 0 1.826-.82 1.826-1.826 0-1.007-.82-1.826-1.826-1.826Zm3.51-1.078a.606.606 0 1 1 .001-1.213.606.606 0 0 1-.001 1.213Z" />
         <path d="M10.913 15.218H5.087A4.292 4.292 0 0 1 .8 10.931V5.069A4.292 4.292 0 0 1 5.087.782h5.826A4.292 4.292 0 0 1 15.2 5.069v5.862a4.292 4.292 0 0 1-4.287 4.287ZM5.087 1.358a3.716 3.716 0 0 0-3.712 3.711v5.862a3.716 3.716 0 0 0 3.712 3.712h5.826a3.716 3.716 0 0 0 3.712-3.712V5.069a3.716 3.716 0 0 0-3.712-3.712H5.087Zm5.826 12.216H5.087a2.647 2.647 0 0 1-2.643-2.643V5.069a2.646 2.646 0 0 1 2.643-2.643h5.826a2.646 2.646 0 0 1 2.643 2.643v5.862a2.646 2.646 0 0 1-2.643 2.644ZM5.087 3.002A2.07 2.07 0 0 0 3.02 5.069v5.862a2.07 2.07 0 0 0 2.068 2.068h5.826a2.07 2.07 0 0 0 2.068-2.068V5.069a2.07 2.07 0 0 0-2.068-2.068H5.087Z" />
         <path d="M8 11.717A3.72 3.72 0 0 1 4.283 8 3.721 3.721 0 0 1 8 4.283 3.721 3.721 0 0 1 11.717 8 3.72 3.72 0 0 1 8 11.717Zm0-6.859A3.145 3.145 0 0 0 4.858 8 3.145 3.145 0 0 0 8 11.142 3.145 3.145 0 0 0 11.142 8 3.145 3.145 0 0 0 8 4.858Zm0 5.256A2.116 2.116 0 0 1 5.886 8c0-1.165.949-2.114 2.114-2.114s2.114.949 2.114 2.114A2.116 2.116 0 0 1 8 10.114Zm0-3.652A1.54 1.54 0 0 0 6.462 8c0 .848.69 1.538 1.538 1.538A1.54 1.54 0 0 0 9.538 8 1.54 1.54 0 0 0 8 6.462Z" />
         <path d="M11.51 5.383a.894.894 0 0 1 0-1.786.894.894 0 0 1 0 1.786Zm0-1.21a.318.318 0 1 0 0 .636.318.318 0 0 0 0-.637Zm-3.97 10.24H4.837a.288.288 0 0 1 0-.575H7.54a.288.288 0 0 1 0 .575Zm1.093 0H8.46a.288.288 0 0 1 0-.575h.173a.288.288 0 0 1 0 .575Z" />
      </g>
      <defs>
         <clipPath id="da">
            <path d="M0 0h16v16H0z" />
         </clipPath>
      </defs>
   </symbol>
   <symbol viewBox="0 0 20 20" id="icon-order-call" xmlns="http://www.w3.org/2000/svg">
      <g clip-path="url(#ea)">
         <path d="m11.696 12.988-1.139 1.193a.53.53 0 0 1-.678.078l-.007-.007a14.113 14.113 0 0 1-3.926-4.112l-.01-.012a.597.597 0 0 1 .073-.712l1.139-1.193a1.46 1.46 0 0 0 .014-2.018L5.353 4.31a1.323 1.323 0 0 0-1.932-.01l-.476.498c-1.947 2.04-2.253 5.213-.728 7.543l.705 1.076a15.07 15.07 0 0 0 3.817 3.999l1.026.737c2.224 1.599 5.252 1.278 7.2-.762l.467-.49a1.48 1.48 0 0 0 .008-2.024l-1.817-1.904c-.536-.56-1.383-.555-1.927.015Zm3.085 2.56c.178.18.183.476.011.662l-.01.011-.467.489c-1.634 1.713-4.17 1.986-6.03.65l-1.026-.738a14.122 14.122 0 0 1-3.58-3.75l-.704-1.075c-1.276-1.948-1.015-4.605.62-6.318l.467-.489a.432.432 0 0 1 .631-.01l1.82 1.906c.176.185.17.462-.015.657L5.36 8.735a1.596 1.596 0 0 0-.184 1.934 15.048 15.048 0 0 0 4.18 4.378.309.309 0 0 1 .013.012 1.422 1.422 0 0 0 1.838-.198l1.138-1.192c.186-.195.45-.2.628-.015l1.808 1.895ZM8.752 1.32a.47.47 0 0 0 .465.477c2.33-.029 4.508.893 6.134 2.597 1.626 1.704 2.507 3.986 2.48 6.426a.471.471 0 0 0 .451.49.47.47 0 0 0 .467-.474v-.005c.03-2.701-.945-5.229-2.748-7.117-1.803-1.89-4.216-2.912-6.795-2.88a.471.471 0 0 0-.454.487Z" />
         <path d="M9.171 3.966a.456.456 0 0 0-.399.242.501.501 0 0 0 .004.483c.084.149.237.24.402.237h.004c3.072-.056 5.607 2.509 5.66 5.728v.201a.472.472 0 0 0 .451.49.47.47 0 0 0 .467-.474v-.005c.06-3.75-2.795-6.84-6.375-6.902a5.707 5.707 0 0 0-.214 0Z" />
         <path d="m11.696 12.988-1.139 1.193a.53.53 0 0 1-.678.078l-.007-.007a14.113 14.113 0 0 1-3.926-4.112l-.01-.012a.597.597 0 0 1 .073-.712l1.139-1.193a1.46 1.46 0 0 0 .014-2.018L5.353 4.31a1.323 1.323 0 0 0-1.932-.01l-.476.498c-1.947 2.04-2.253 5.213-.728 7.543l.705 1.076a15.07 15.07 0 0 0 3.817 3.999l1.026.737c2.224 1.599 5.252 1.278 7.2-.762l.467-.49a1.48 1.48 0 0 0 .008-2.024l-1.817-1.904c-.536-.56-1.383-.555-1.927.015Zm3.085 2.56c.178.18.183.476.011.662l-.01.011-.467.489c-1.634 1.713-4.17 1.986-6.03.65l-1.026-.738a14.122 14.122 0 0 1-3.58-3.75l-.704-1.075c-1.276-1.948-1.015-4.605.62-6.318l.467-.489a.432.432 0 0 1 .631-.01l1.82 1.906c.176.185.17.462-.015.657L5.36 8.735a1.596 1.596 0 0 0-.184 1.934 15.048 15.048 0 0 0 4.18 4.378.309.309 0 0 1 .013.012 1.422 1.422 0 0 0 1.838-.198l1.138-1.192c.186-.195.45-.2.628-.015l1.808 1.895ZM8.752 1.32a.47.47 0 0 0 .465.477c2.33-.029 4.508.893 6.134 2.597 1.626 1.704 2.507 3.986 2.48 6.426a.471.471 0 0 0 .451.49.47.47 0 0 0 .467-.474v-.005c.03-2.701-.945-5.229-2.748-7.117-1.803-1.89-4.216-2.912-6.795-2.88a.471.471 0 0 0-.454.487Z" />
         <path d="M9.171 3.966a.456.456 0 0 0-.399.242.501.501 0 0 0 .004.483c.084.149.237.24.402.237h.004c3.072-.056 5.607 2.509 5.66 5.728v.201a.472.472 0 0 0 .451.49.47.47 0 0 0 .467-.474v-.005c.06-3.75-2.795-6.84-6.375-6.902a5.707 5.707 0 0 0-.214 0Z" />
      </g>
      <defs>
         <clipPath id="ea">
            <path d="M0 0h20v20H0z" />
         </clipPath>
      </defs>
   </symbol>
   <symbol viewBox="0 0 16 16" id="icon-phone" xmlns="http://www.w3.org/2000/svg">
      <g clip-path="url(#fa)">
         <rect width="16" height="16" rx="8" fill="#E6514A"/>
         <path d="m12.022 10.45-1.3-1.303a.677.677 0 0 0-.957.018l-.655.656a19.224 19.224 0 0 1-.13-.072c-.413-.23-.98-.545-1.575-1.142-.598-.6-.912-1.168-1.142-1.583l-.07-.126.439-.44.216-.217a.68.68 0 0 0 .018-.959L5.565 3.98a.676.676 0 0 0-.956.018l-.367.37.01.01a2.126 2.126 0 0 0-.302.533c-.07.186-.114.364-.134.542-.172 1.426.479 2.73 2.244 4.5 2.44 2.446 4.408 2.261 4.492 2.252a2.195 2.195 0 0 0 1.073-.438l.008.007.371-.364a.681.681 0 0 0 .018-.959Z" />
      </g>
      <defs>
         <clipPath id="fa">
            <path d="M0 0h16v16H0z" fill="white" />
         </clipPath>
      </defs>
   </symbol>
   <symbol viewBox="0 0 80 80" id="icon-play" xmlns="http://www.w3.org/2000/svg">
      <path d="M40 0C17.937 0 0 17.937 0 40s17.937 40 40 40 40-17.937 40-40S62.063 0 40 0Zm12.884 42.021L34.021 54.568c-1.6 1.095-3.79-.084-3.79-2.02V27.452c0-1.937 2.19-3.116 3.79-2.021l18.863 12.547c1.432.926 1.432 3.116 0 4.042Z" />
   </symbol>
   <symbol viewBox="0 0 17 16" id="icon-play-small" xmlns="http://www.w3.org/2000/svg">
      <path d="M8.75 0a8 8 0 1 0 0 16 8 8 0 0 0 0-16ZM6.434 4.21 12.75 8l-6.316 3.79V4.21Z" />
   </symbol>
   <symbol viewBox="0 0 16 16" id="icon-vk" xmlns="http://www.w3.org/2000/svg">
      <g clip-path="url(#ia)">
         <path d="M13.54 9.181c.51.498 1.048.966 1.505 1.513a4.4 4.4 0 0 1 .539.777c.207.402.02.844-.34.868l-2.239-.002c-.577.048-1.037-.184-1.425-.579-.31-.315-.596-.651-.894-.977a2.114 2.114 0 0 0-.403-.358c-.305-.199-.57-.138-.745.18-.178.325-.218.684-.236 1.045-.024.527-.183.665-.712.69-1.132.053-2.205-.118-3.203-.689-.88-.503-1.561-1.213-2.155-2.017C2.077 8.066 1.192 6.345.397 4.577c-.18-.399-.048-.613.391-.62.73-.014 1.46-.013 2.191-.001.297.004.493.174.608.455.395.97.878 1.895 1.485 2.751.162.228.326.456.56.617.26.178.458.119.58-.17a1.91 1.91 0 0 0 .129-.577c.058-.676.065-1.35-.036-2.023-.062-.42-.299-.692-.718-.772-.214-.04-.182-.12-.079-.242.18-.21.35-.342.687-.342h2.529c.398.079.487.258.541.658l.002 2.81c-.004.155.078.615.357.718.224.073.371-.106.505-.248.606-.642 1.038-1.402 1.424-2.188.171-.346.319-.705.461-1.064.106-.267.272-.398.572-.392l2.434.002c.073 0 .146.001.216.013.41.07.522.247.396.647-.2.629-.588 1.152-.968 1.679-.406.561-.84 1.104-1.243 1.669-.37.516-.34.776.12 1.224Z" />
         <path d="M8.21 12.665c-1.135 0-2.113-.243-2.981-.74-.826-.472-1.542-1.14-2.253-2.104-1.01-1.369-1.895-2.946-2.87-5.114-.136-.303-.141-.559-.014-.759.127-.2.36-.304.69-.31a60.57 60.57 0 0 1 2.202 0c.41.005.728.237.898.652a13.175 13.175 0 0 0 1.45 2.688c.141.2.287.406.48.538h.002a.07.07 0 0 0 .104-.03v-.001c.054-.127.088-.28.105-.482.065-.75.054-1.368-.033-1.947-.044-.298-.187-.453-.463-.506-.078-.014-.316-.06-.396-.286-.08-.223.076-.406.134-.475.202-.236.454-.454.93-.454h2.529c.02 0 .04.001.059.005.637.125.743.527.798.929a.321.321 0 0 1 .003.042l.002 2.81v.009a.735.735 0 0 0 .038.218.146.146 0 0 0 .246.053l.028-.029c.613-.65 1.036-1.432 1.369-2.11.174-.351.324-.721.452-1.041.158-.4.45-.6.87-.592l2.432.002c.084 0 .174.001.268.017.195.033.47.106.619.35.148.243.087.52.027.707-.207.654-.595 1.19-.97 1.71l-.043.06c-.192.265-.392.53-.586.785-.218.288-.444.585-.655.882-.142.197-.203.33-.194.42.009.092.097.216.276.39v.001c.133.13.271.26.405.388.38.36.773.732 1.121 1.15.192.23.41.51.578.834.16.312.163.664.006.942a.749.749 0 0 1-.63.39h-2.225c-.62.047-1.18-.18-1.665-.675a19.36 19.36 0 0 1-.618-.67 40.38 40.38 0 0 0-.285-.316 1.843 1.843 0 0 0-.34-.306c-.073-.047-.138-.07-.175-.06-.035.008-.079.056-.118.127-.139.254-.18.546-.197.906-.03.682-.316.961-1.016.993-.133.006-.265.01-.394.01ZM.64 4.295a.542.542 0 0 0 .048.151c.956 2.125 1.82 3.666 2.802 4.996.657.89 1.31 1.503 2.056 1.93.858.491 1.849.703 3.03.647.245-.011.319-.048.34-.069.018-.016.058-.079.069-.317.019-.389.065-.8.274-1.183.162-.295.373-.401.521-.439.15-.037.389-.043.678.144.192.126.342.278.464.41.098.107.195.217.29.322.193.216.393.44.597.648.36.367.733.521 1.171.485a.287.287 0 0 1 .026-.001h2.225c.02-.002.057-.011.088-.066.038-.066.056-.194-.018-.336a4.147 4.147 0 0 0-.5-.72c-.324-.387-.687-.73-1.07-1.094a38.02 38.02 0 0 1-.412-.394c-.578-.563-.619-.992-.156-1.638.217-.304.445-.605.666-.896.192-.253.39-.514.578-.774l.043-.06c.36-.5.702-.972.879-1.528a.506.506 0 0 0 .034-.183.515.515 0 0 0-.18-.054 1.038 1.038 0 0 0-.162-.008l-2.434-.002h-.006c-.143-.003-.203.024-.27.19a14.66 14.66 0 0 1-.471 1.088c-.354.72-.806 1.553-1.478 2.266l-.025.027c-.143.152-.409.436-.811.305a.488.488 0 0 1-.01-.004c-.442-.162-.572-.754-.567-1.02l-.002-2.785c-.014-.099-.037-.226-.077-.28-.01-.013-.038-.05-.178-.081H6.195a.499.499 0 0 0-.24.048c.366.166.598.491.665.942.095.629.107 1.295.039 2.097-.025.27-.073.484-.153.674-.125.294-.31.403-.443.442-.133.039-.347.047-.61-.133-.288-.197-.484-.473-.641-.695a13.802 13.802 0 0 1-1.52-2.816c-.091-.223-.212-.255-.317-.257a59.946 59.946 0 0 0-2.18.001.547.547 0 0 0-.156.02Z" />
         <path d="M2.04 5.764a.319.319 0 0 1-.284-.175 34.566 34.566 0 0 1-.142-.284.319.319 0 1 1 .571-.282l.14.278a.319.319 0 0 1-.285.463Zm2.027 3.352a.318.318 0 0 1-.256-.13 21.782 21.782 0 0 1-1.54-2.421.319.319 0 0 1 .558-.309c.483.874.972 1.643 1.495 2.352a.319.319 0 0 1-.257.508Z" />
      </g>
      <defs>
         <clipPath id="ia">
            <path d="M0 0h16v16H0z" />
         </clipPath>
      </defs>
   </symbol>
   <symbol viewBox="0 0 16 16" id="icon-whatsapp" xmlns="http://www.w3.org/2000/svg">
     <g clip-path="url(#clip0_2118_551)">
      <path d="M8.002 0H7.998C3.587 0 0 3.588 0 8C0 9.75 0.564 11.372 1.523 12.689L0.526 15.661L3.601 14.678C4.866 15.516 6.375 16 8.002 16C12.413 16 16 12.411 16 8C16 3.589 12.413 0 8.002 0Z" fill="#4CAF50" />
      <path d="M12.6571 11.297C12.4641 11.842 11.6981 12.294 11.0871 12.426C10.6691 12.515 10.1231 12.586 8.28505 11.824C5.93405 10.85 4.42005 8.46101 4.30205 8.30601C4.18905 8.15101 3.35205 7.04101 3.35205 5.89301C3.35205 4.74501 3.93505 4.18601 4.17005 3.94601C4.36305 3.74901 4.68205 3.65901 4.98805 3.65901C5.08705 3.65901 5.17605 3.66401 5.25605 3.66801C5.49105 3.67801 5.60905 3.69201 5.76405 4.06301C5.95705 4.52801 6.42705 5.67601 6.48305 5.79401C6.54005 5.91201 6.59705 6.07201 6.51705 6.22701C6.44205 6.38701 6.37605 6.45801 6.25805 6.59401C6.14005 6.73001 6.02805 6.83401 5.91005 6.98001C5.80205 7.10701 5.68005 7.24301 5.81605 7.47801C5.95205 7.70801 6.42205 8.47501 7.11405 9.09101C8.00705 9.88601 8.73105 10.14 8.99005 10.248C9.18305 10.328 9.41305 10.309 9.55405 10.159C9.73306 9.96601 9.95406 9.64601 10.1791 9.33101C10.3391 9.10501 10.5411 9.07701 10.7531 9.15701C10.9691 9.23201 12.1121 9.79701 12.3471 9.91401C12.5821 10.032 12.7371 10.088 12.7941 10.187C12.8501 10.286 12.8501 10.751 12.6571 11.297Z" fill="#FAFAFA" />
   </g>
   <defs>
      <clipPath id="clip0_2118_551">
         <rect width="16" height="16" fill="white" />
      </clipPath>
   </defs>
   </symbol>
   <symbol viewBox="0 0 16 16" id="icon-youtube" xmlns="http://www.w3.org/2000/svg">
      <path d="M15.183 4.25a1.879 1.879 0 0 0-1.322-1.321c-1.174-.322-5.869-.322-5.869-.322s-4.695 0-5.869.31c-.63.172-1.15.691-1.322 1.334C.492 5.424.492 7.859.492 7.859s0 2.446.31 3.607a1.88 1.88 0 0 0 1.321 1.323c1.186.32 5.87.32 5.87.32s4.694 0 5.868-.308a1.88 1.88 0 0 0 1.322-1.322c.31-1.174.31-3.608.31-3.608s.011-2.447-.31-3.62Zm-8.686 5.857V5.61l3.905 2.249-3.905 2.248Z" />
   </symbol>
</svg>